<?xml version="1.0" encoding="utf-8"?>
<!-- Generator: Adobe Illustrator 24.3.0, SVG Export Plug-In . SVG Version: 6.00 Build 0)  -->
<svg version="1.1" id="Ebene_1" xmlns="http://www.w3.org/2000/svg" xmlns:xlink="http://www.w3.org/1999/xlink" x="0px" y="0px"
	 viewBox="0 0 316.85 364.49" style="enable-background:new 0 0 316.85 364.49;" xml:space="preserve">
<style type="text/css">
	.st0{fill:#FFFFFF;}
</style>
<g>
	<g>
		<path class="st0" d="M0,286.19v-54.22h13.89c11.93,0,18.05,4.98,18.05,16.16c0,10.87-6.27,16.54-18.05,16.54H8.98v21.52H0z
			 M14.27,256.74c4.38,0,8.46-1.96,8.46-8.61c0-5.82-3.02-8-8.31-8H8.98v16.61H14.27z"/>
		<rect x="36.79" y="231.97" class="st0" width="8" height="54.22"/>
		<path class="st0" d="M69.57,286.19l-0.46-4.15c-3.1,3.17-6.57,4.83-10.65,4.83c-5.51,0-8.83-3.78-8.83-10.35
			c0-4.46,1.59-7.85,4.98-10.34c3.02-2.34,8.01-4,14.12-5.81c0.45-5.14-0.68-7.63-4.68-7.63c-3.32,0-5.21,1.96-6.34,5.44l-6.49-1.59
			c1.74-6.34,5.59-10.42,13.29-10.42c8.53,0,12.08,4.08,12.08,12.38v20.24l0.6,7.4H69.57z M68.51,266.03
			c-4.3,1.21-6.72,2.19-8.46,3.62c-1.59,1.28-2.19,3.32-2.19,5.66c0,2.95,1.28,4.83,3.85,4.83c2.49,0,5.06-1.43,6.8-3.77V266.03z"/>
		<path class="st0" d="M101.96,286.19v-26.35c0-4.3-1.29-6.04-4.08-6.04c-2.11,0-4.15,1.13-6.57,3.93v28.47h-8v-39.27h7.78v4.68
			c3.25-3.62,6.27-5.44,10.27-5.44c3.32,0,5.74,1.28,6.95,3.55c1.28,2.04,1.58,4.91,1.58,9.21v27.26H101.96z"/>
		<path class="st0" d="M129.15,286.87c-9.44,0-14.05-6.27-14.05-20.54c0-12.69,4.91-20.16,14.2-20.16
			c10.19,0,13.74,8.08,13.74,18.12c0,1.13,0,2.42-0.08,3.85h-20.16c0.3,8.23,2.04,12.08,6.72,12.08c3.62,0,5.59-2.49,6.72-6.57
			l6.72,1.36C140.86,283.32,136.25,286.87,129.15,286.87 M122.88,262.33h12.46c0-5.81-1.81-9.74-6.04-9.74
			C125.38,252.59,123.41,256.06,122.88,262.33"/>
		<path class="st0" d="M165.91,285.96c-1.96,0.38-3.93,0.6-6.19,0.6c-6.49,0-8.91-2.42-8.91-9.89v-23.03h-5.21v-6.72h5.21v-12.76
			h7.93v12.76h7.17v6.72h-7.17v21.67c0,2.79,1.06,3.93,3.4,3.93c1.21,0,2.49-0.15,3.78-0.53V285.96z"/>
		<path class="st0" d="M189.22,286.19l-0.46-4.15c-3.1,3.17-6.57,4.83-10.65,4.83c-5.51,0-8.83-3.78-8.83-10.35
			c0-4.46,1.59-7.85,4.98-10.34c3.02-2.34,8.01-4,14.12-5.81c0.45-5.14-0.68-7.63-4.68-7.63c-3.32,0-5.21,1.96-6.34,5.44l-6.49-1.59
			c1.74-6.34,5.59-10.42,13.29-10.42c8.53,0,12.08,4.08,12.08,12.38v20.24l0.6,7.4H189.22z M188.16,266.03
			c-4.3,1.21-6.72,2.19-8.46,3.62c-1.59,1.28-2.19,3.32-2.19,5.66c0,2.95,1.28,4.83,3.85,4.83c2.49,0,5.06-1.43,6.8-3.77V266.03z"/>
		<path class="st0" d="M202.96,286.19v-39.27h7.78v6.49c2.57-4.68,5.13-7.25,9.29-7.25c0.38,0,0.75,0.08,1.28,0.15v8.23
			c-0.6-0.08-1.21-0.15-1.59-0.15c-3.85,0-6.64,2.34-8.76,6.72v25.07H202.96z"/>
		<path class="st0" d="M225.15,231.59h8.31v8.91h-8.31V231.59z M225.3,246.92h8v39.27h-8V246.92z"/>
		<path class="st0" d="M258.8,286.19v-4.68c-3.32,3.62-6.34,5.36-10.35,5.36c-3.32,0-5.59-1.21-6.87-3.47
			c-1.28-2.04-1.66-4.91-1.66-9.21v-27.26h8.15v26.35c0,4.3,1.06,6.04,4,6.04c2.04,0,4.08-1.13,6.42-3.93v-28.47h8.08v39.27H258.8z"
			/>
		<path class="st0" d="M308.92,286.19v-26.66c0-4.38-1.59-5.74-3.7-5.74c-2.04,0-4.08,1.28-6.04,3.7v28.69h-8.01v-26.35
			c0-4.15-0.91-6.04-3.55-6.04c-2.12,0-4.31,1.59-6.19,4v28.39h-8v-39.27h7.78v4.61c2.95-3.4,6.19-5.36,9.89-5.36
			c3.92,0,6.19,1.96,7.25,5.36c3.17-3.55,6.19-5.36,10.12-5.36c6.27,0,8.38,4.76,8.38,12.08v27.94H308.92z"/>
		<polygon class="st0" points="68.76,363.81 68.76,309.59 96.93,309.59 96.93,317.74 77.75,317.74 77.75,331.87 92.02,331.87 
			92.02,339.72 77.75,339.72 77.75,363.81 		"/>
		<path class="st0" d="M98.78,363.81v-39.27h7.78v6.49c2.57-4.68,5.13-7.25,9.29-7.25c0.38,0,0.75,0.08,1.28,0.15v8.23
			c-0.6-0.08-1.21-0.15-1.59-0.15c-3.85,0-6.64,2.34-8.76,6.72v25.07H98.78z"/>
		<path class="st0" d="M120.97,309.21h8.31v8.91h-8.31V309.21z M121.12,324.54h8v39.27h-8V324.54z"/>
		<path class="st0" d="M153.57,363.58c-1.96,0.38-3.93,0.6-6.19,0.6c-6.49,0-8.91-2.42-8.91-9.89v-23.03h-5.21v-6.72h5.21v-12.76
			h7.93v12.76h7.17v6.72h-7.17v21.67c0,2.8,1.06,3.93,3.4,3.93c1.21,0,2.49-0.15,3.78-0.53V363.58z"/>
		<polygon class="st0" points="156.68,363.81 156.68,357.77 172.09,331.26 158.12,331.26 158.12,324.54 181.6,324.54 181.6,330.66 
			166.2,357.09 182.05,357.09 182.05,363.81 		"/>
		<rect x="186.62" y="309.59" class="st0" width="8" height="54.22"/>
		<path class="st0" d="M219.41,363.81l-0.46-4.15c-3.1,3.17-6.57,4.83-10.65,4.83c-5.51,0-8.83-3.77-8.83-10.35
			c0-4.45,1.59-7.85,4.98-10.34c3.02-2.34,8.01-4,14.12-5.82c0.45-5.14-0.68-7.63-4.68-7.63c-3.32,0-5.21,1.96-6.34,5.44l-6.49-1.59
			c1.74-6.34,5.59-10.42,13.29-10.42c8.53,0,12.08,4.08,12.08,12.38v20.24l0.6,7.4H219.41z M218.35,343.64
			c-4.3,1.21-6.72,2.19-8.46,3.62c-1.59,1.28-2.19,3.32-2.19,5.66c0,2.95,1.28,4.83,3.85,4.83c2.49,0,5.06-1.43,6.8-3.77V343.64z"/>
		<path class="st0" d="M233.15,363.81v-39.27h7.78v6.49c2.57-4.68,5.14-7.25,9.29-7.25c0.38,0,0.75,0.08,1.28,0.15v8.23
			c-0.6-0.08-1.21-0.15-1.59-0.15c-3.85,0-6.64,2.34-8.76,6.72v25.07H233.15z"/>
	</g>
	<g>
		<path class="st0" d="M81.24,64.31l0.23,14.57h5.55c0.01-3.05,0.21-6.05,0.6-8.99v0c0.22-1.68,0.49-3.35,0.83-4.99
			c0.28-1.38,0.59-2.74,0.96-4.08c0.23-0.87,0.47-1.74,0.74-2.6v0c2.97-8.94,7.51-17.13,13.28-24.22
			c4.93-6.07,10.76-11.33,17.28-15.57c0.01,0,0.02-0.01,0.02-0.02c4.86-3.06,10.12-5.55,15.68-7.4V3.5c1.54-0.51,3.1-0.96,4.68-1.36
			C146.58,0.74,152.33,0,158.25,0c5.68,0,11.19,0.68,16.47,1.97c22.29,5.41,40.49,21.57,48.99,42.8c0,0,0,0,0,0.01
			c0.68,1.69,1.29,3.42,1.84,5.18c0,0,0,0,0,0.01c0,0,0,0.01,0,0.01c1.12,3.58,1.98,7.29,2.54,11.09c0.19,1.27,0.35,2.55,0.47,3.84
			c0.22,2.29,0.33,4.61,0.33,6.96c0,2.37-0.11,4.71-0.34,7.03h8.3V64.94c9.08,4.77,14.33,10.43,14.33,16.49
			c0,4.01-2.3,7.85-6.49,11.37c0,0,0,0-0.01,0c-3.88,2.25-8.13,4.34-12.68,6.25c-1.13,0.48-2.28,0.94-3.45,1.39
			c-2.11,0.82-4.29,1.6-6.52,2.35c-16.41,5.48-35.91,8.87-56.94,9.42c-0.08,0-0.17,0-0.25,0.01c-1.59,0.04-3.19,0.06-4.8,0.07
			c-0.54,0-1.08,0-1.62,0c-0.28,0-0.55,0-0.83,0c-23.61-0.15-45.48-3.88-63.44-10.15c-1.29-0.45-2.56-0.91-3.8-1.39
			c-0.81-0.31-1.6-0.62-2.39-0.94c-6.72-2.7-12.79-5.78-18.08-9.16c0,0,0,0-0.01-0.01c-2.73-2.91-4.21-6-4.21-9.22
			C65.66,73.69,67.1,69.72,81.24,64.31"/>
		<path class="st0" d="M241.25,101.09v103.8H195.9v-74.23h-11.26v74.23h-51.78v-74.23h-10.5v74.23H76.02v-103.8h0.68
			c0.25,0.14,0.51,0.28,0.76,0.42c10.04,5.43,25.84,9.74,44.9,12.19c3.4,0.44,6.91,0.82,10.5,1.13c8.22,0.72,16.92,1.11,25.91,1.11
			c8.98,0,17.66-0.39,25.87-1.1c3.86-0.34,7.62-0.75,11.26-1.23c19.23-2.53,35.08-6.97,44.94-12.52H241.25z"/>
	</g>
</g>
</svg>
